<svg width="96" height="96" viewBox="0 0 96 96" fill="none" xmlns="http://www.w3.org/2000/svg">
<rect width="96" height="96" rx="10" fill="#008000"/>
<path d="M55.6887 47.9417C56.2013 45.3788 57.4827 43.5848 59.533 41.5344C62.0959 39.2278 63.3774 35.8961 63.3774 32.5643C63.3774 28.486 61.7573 24.5746 58.8735 21.6908C55.9896 18.807 52.0783 17.1869 48 17.1869C43.9217 17.1869 40.0104 18.807 37.1265 21.6908C34.2427 24.5746 32.6226 28.486 32.6226 32.5643C32.6226 35.1272 33.1352 38.2027 36.4669 41.5344C38.261 43.3285 39.7987 45.3788 40.3113 47.9417" stroke="white" stroke-width="4.8" stroke-linecap="square"/>
<path d="M40.3113 58.1933H55.6887" stroke="white" stroke-width="4.8" stroke-linecap="square"/>
<path d="M42.8742 68.4449H53.1258" stroke="white" stroke-width="4.8" stroke-linecap="square"/>
<path d="M69.7704 25.511H72.1894" stroke="white" stroke-width="3.2" stroke-linecap="square" stroke-linejoin="round"/>
<path d="M63.7231 13.0248L62.5136 13.8573" stroke="white" stroke-width="3.2" stroke-linecap="square" stroke-linejoin="round"/>
<path d="M23.8106 25.511H26.2296" stroke="white" stroke-width="3.2" stroke-linecap="square" stroke-linejoin="round"/>
<path d="M48 8.8628V10.5276" stroke="white" stroke-width="3.2" stroke-linecap="square" stroke-linejoin="round"/>
<path d="M30.8957 13.7391L32.6059 14.9161" stroke="white" stroke-width="3.2" stroke-linecap="square" stroke-linejoin="round"/>
<path d="M72.9794 67.2679L89.4314 50.8159L72.9794 34.3639" stroke="white" stroke-width="5" stroke-linecap="square"/>
<path d="M23.0206 34.3639L6.5686 50.8159L23.0206 67.2679" stroke="white" stroke-width="5" stroke-linecap="square"/>
<path d="M19.6211 84.1308V78.6112H21.3496V84.5643C21.3496 85.0018 21.4609 85.3456 21.6836 85.5956C21.9062 85.8417 22.2148 85.9647 22.6094 85.9647C23.0039 85.9647 23.3125 85.8417 23.5352 85.5956C23.7578 85.3456 23.8691 85.0018 23.8691 84.5643V78.6112H25.5977V84.1308C25.5977 85.3183 25.3613 86.1815 24.8887 86.7206C24.416 87.2597 23.6562 87.5292 22.6094 87.5292C21.5664 87.5292 20.8066 87.2597 20.3301 86.7206C19.8574 86.1815 19.6211 85.3183 19.6211 84.1308ZM28.6328 83.3866V85.9765H29.7812C30.332 85.9765 30.7168 85.8827 30.9355 85.6952C31.1582 85.5077 31.2695 85.1815 31.2695 84.7167C31.2695 84.244 31.1543 83.9042 30.9238 83.6972C30.6934 83.4901 30.3125 83.3866 29.7812 83.3866H28.6328ZM28.6328 79.9765V82.0097H29.7812C30.2188 82.0097 30.5293 81.9315 30.7129 81.7753C30.9004 81.619 30.9941 81.3612 30.9941 81.0018C30.9941 80.6425 30.8984 80.3827 30.707 80.2225C30.5195 80.0585 30.2109 79.9765 29.7812 79.9765H28.6328ZM26.9629 78.5995H29.7812C30.7539 78.5995 31.4844 78.785 31.9727 79.1561C32.4648 79.5233 32.7109 80.0741 32.7109 80.8085C32.7109 81.371 32.5664 81.8104 32.2773 82.1268C31.9883 82.4433 31.5645 82.6268 31.0059 82.6776C31.6738 82.744 32.1758 82.9686 32.5117 83.3515C32.8516 83.7343 33.0215 84.2694 33.0215 84.9569C33.0215 85.8007 32.7676 86.412 32.2598 86.7909C31.752 87.1698 30.9258 87.3593 29.7812 87.3593H26.9629V78.5995ZM39.7949 87.1073C39.5215 87.2479 39.2344 87.3534 38.9336 87.4237C38.6328 87.494 38.3164 87.5292 37.9844 87.5292C36.8047 87.5292 35.9043 87.1405 35.2832 86.3632C34.6621 85.5858 34.3516 84.4628 34.3516 82.994C34.3516 81.5214 34.6621 80.3964 35.2832 79.619C35.9043 78.8417 36.8047 78.453 37.9844 78.453C38.3164 78.453 38.6348 78.4882 38.9395 78.5585C39.2441 78.6288 39.5293 78.7343 39.7949 78.8749V80.7968C39.498 80.5233 39.209 80.3241 38.9277 80.1991C38.6504 80.0702 38.3633 80.0058 38.0664 80.0058C37.4336 80.0058 36.9551 80.2577 36.6309 80.7616C36.3105 81.2616 36.1504 82.0058 36.1504 82.994C36.1504 83.9784 36.3105 84.7225 36.6309 85.2265C36.9551 85.7265 37.4336 85.9765 38.0664 85.9765C38.3633 85.9765 38.6504 85.914 38.9277 85.789C39.209 85.66 39.498 85.4589 39.7949 85.1854V87.1073ZM48.9297 80.1347V78.6112H54.1387V80.1347H52.3984V85.8358H54.1387V87.3593H48.9297V85.8358H50.6699V80.1347H48.9297ZM61.4863 87.1073C61.2129 87.2479 60.9258 87.3534 60.625 87.4237C60.3242 87.494 60.0078 87.5292 59.6758 87.5292C58.4961 87.5292 57.5957 87.1405 56.9746 86.3632C56.3535 85.5858 56.043 84.4628 56.043 82.994C56.043 81.5214 56.3535 80.3964 56.9746 79.619C57.5957 78.8417 58.4961 78.453 59.6758 78.453C60.0078 78.453 60.3262 78.4882 60.6309 78.5585C60.9355 78.6288 61.2207 78.7343 61.4863 78.8749V80.7968C61.1895 80.5233 60.9004 80.3241 60.6191 80.1991C60.3418 80.0702 60.0547 80.0058 59.7578 80.0058C59.125 80.0058 58.6465 80.2577 58.3223 80.7616C58.002 81.2616 57.8418 82.0058 57.8418 82.994C57.8418 83.9784 58.002 84.7225 58.3223 85.2265C58.6465 85.7265 59.125 85.9765 59.7578 85.9765C60.0547 85.9765 60.3418 85.914 60.6191 85.789C60.9004 85.66 61.1895 85.4589 61.4863 85.1854V87.1073ZM65.0605 80.0643V82.6308H65.7695C66.3359 82.6308 66.7324 82.535 66.959 82.3436C67.1895 82.1522 67.3047 81.8202 67.3047 81.3475C67.3047 80.8749 67.1895 80.5429 66.959 80.3515C66.7324 80.16 66.3359 80.0643 65.7695 80.0643H65.0605ZM63.332 78.6112H65.7051C66.9121 78.6112 67.7793 78.8261 68.3066 79.2558C68.8379 79.6854 69.1035 80.3827 69.1035 81.3475C69.1035 82.3124 68.8379 83.0097 68.3066 83.4393C67.7793 83.869 66.9121 84.0839 65.7051 84.0839H65.0605V87.3593H63.332V78.6112ZM75.9473 87.1073C75.6738 87.2479 75.3867 87.3534 75.0859 87.4237C74.7852 87.494 74.4688 87.5292 74.1367 87.5292C72.957 87.5292 72.0566 87.1405 71.4355 86.3632C70.8145 85.5858 70.5039 84.4628 70.5039 82.994C70.5039 81.5214 70.8145 80.3964 71.4355 79.619C72.0566 78.8417 72.957 78.453 74.1367 78.453C74.4688 78.453 74.7871 78.4882 75.0918 78.5585C75.3965 78.6288 75.6816 78.7343 75.9473 78.8749V80.7968C75.6504 80.5233 75.3613 80.3241 75.0801 80.1991C74.8027 80.0702 74.5156 80.0058 74.2188 80.0058C73.5859 80.0058 73.1074 80.2577 72.7832 80.7616C72.4629 81.2616 72.3027 82.0058 72.3027 82.994C72.3027 83.9784 72.4629 84.7225 72.7832 85.2265C73.1074 85.7265 73.5859 85.9765 74.2188 85.9765C74.5156 85.9765 74.8027 85.914 75.0801 85.789C75.3613 85.66 75.6504 85.4589 75.9473 85.1854V87.1073Z" fill="white"/>
</svg>
